opsz8_wght100_wdth125.ufo
<glyph name="zero" format="2">
	<unicode hex="0030"/>
	<advance width="1188"/>
	<outline>
		<contour>
			<point x="73.9985351562" y="744.0427246094" type="qcurve" smooth="yes"/>
			<point x="73.9985351562" y="1105.8439331055"/>
			<point x="359.4323120117" y="1510.0054931641"/>
			<point x="595.9195556641" y="1510.0054931641" type="qcurve" smooth="yes"/>
			<point x="829.7999267578" y="1510.0054931641"/>
			<point x="1114.2413330078" y="1149.8039550781"/>
			<point x="1114.2413330078" y="753.002746582" type="qcurve" smooth="yes"/>
			<point x="1114.2413330078" y="364.0416259766"/>
			<point x="818.1332397461" y="-32"/>
			<point x="598.9195556641" y="-32" type="qcurve" smooth="yes"/>
			<point x="362.1028442383" y="-32"/>
			<point x="73.9985351562" y="344.2814941406"/>
		</contour>
		<contour>
			<point x="265.3282470703" y="761.9227905273" type="qcurve" smooth="yes"/>
			<point x="259" y="481"/>
			<point x="442.9215087891" y="81"/>
			<point x="594.9195556641" y="81" type="qcurve" smooth="yes"/>
			<point x="756.9176025391" y="81"/>
			<point x="917" y="447"/>
			<point x="922.9116210938" y="757.0427246094" type="qcurve" smooth="yes"/>
			<point x="917" y="1027"/>
			<point x="757.9176025391" y="1394.0054931641"/>
			<point x="596.9195556641" y="1394.0054931641" type="qcurve" smooth="yes"/>
			<point x="435.9215087891" y="1394.0054931641"/>
			<point x="259" y="1060"/>
		</contour>
	</outline>
</glyph>
<glyph name="one" format="2">
	<unicode hex="0031"/>
	<advance width="967"/>
	<outline>
		<contour>
			<point x="81.7379150391" y="0" type="line"/>
			<point x="81.7379150391" y="93.99609375" type="line"/>
			<point x="339.7418212891" y="121.99609375" type="line"/>
			<point x="341.7418212891" y="750.4019775391" type="line"/>
			<point x="341.7418212891" y="1349.0061035156" type="line"/>
			<point x="82.9991455078" y="1359.0054931641" type="line"/>
			<point x="82.9991455078" y="1454.0054931641" type="line"/>
			<point x="445.0717163086" y="1512.0054931641" type="line"/>
			<point x="518.4050292969" y="1464.0054931641" type="line"/>
			<point x="513.0717163086" y="750.4019775391" type="line"/>
			<point x="515.0717163086" y="121.99609375" type="line"/>
			<point x="771.0756225586" y="93.99609375" type="line"/>
			<point x="771.0756225586" y="0" type="line"/>
		</contour>
	</outline>
</glyph>
<glyph name="two" format="2">
	<unicode hex="0032"/>
	<advance width="1096"/>
	<outline>
		<contour>
			<point x="53.9985351562" y="0" type="line"/>
			<point x="53.9985351562" y="87" type="line"/>
			<point x="57.1419067383" y="232.0005493164"/>
			<point x="240.1911010742" y="526.876953125"/>
			<point x="487.5616455078" y="694.8422851562" type="qcurve" smooth="yes"/>
			<point x="672.6466064453" y="829.0850830078"/>
			<point x="822.7618408203" y="981.082824707"/>
			<point x="822.7618408203" y="1123.0438232422" type="qcurve" smooth="yes"/>
			<point x="822.7618408203" y="1259.164855957"/>
			<point x="655.6541748047" y="1391.0054931641"/>
			<point x="522.9077148438" y="1391.0054931641" type="qcurve" smooth="yes"/>
			<point x="391.6022949219" y="1391.0054931641"/>
			<point x="213.5372314453" y="1287.4024658203"/>
			<point x="171.9985351562" y="1222.2077636719" type="qcurve"/>
			<point x="112.9985351562" y="1325.6085205078" type="line"/>
			<point x="174.9606933594" y="1394.7232666016"/>
			<point x="386.696472168" y="1510.0054931641"/>
			<point x="577.3519897461" y="1510.0054931641" type="qcurve" smooth="yes"/>
			<point x="770.2849121094" y="1510.0054931641"/>
			<point x="1013.4247436523" y="1303.3647460938"/>
			<point x="1013.4247436523" y="1133.96484375" type="qcurve" smooth="yes"/>
			<point x="1013.4247436523" y="960.7130126953"/>
			<point x="840.7018432617" y="723.1755981445"/>
			<point x="597.1061401367" y="580.3367919922" type="qcurve" smooth="yes"/>
			<point x="385.551940918" y="451.9817504883"/>
			<point x="222.809387207" y="272.1986083984"/>
			<point x="194.9973144531" y="174.916809082" type="qcurve"/>
			<point x="199.9973144531" y="164.9967651367" type="line"/>
			<point x="1035.735168457" y="164.9967651367" type="line"/>
			<point x="1035.735168457" y="0" type="line"/>
		</contour>
	</outline>
</glyph>
<glyph name="three" format="2">
	<unicode hex="0033"/>
	<advance width="1011"/>
	<outline>
		<contour>
			<point x="-27.0014648438" y="169" type="qcurve"/>
			<point x="44.9985351562" y="271" type="line"/>
			<point x="104.7319335938" y="188.4083251953"/>
			<point x="283.9813232422" y="82"/>
			<point x="418.2799072266" y="82" type="qcurve" smooth="yes"/>
			<point x="557.5633544922" y="82"/>
			<point x="749.4157714844" y="260.7606811523"/>
			<point x="749.4157714844" y="414.561340332" type="qcurve" smooth="yes"/>
			<point x="749.4157714844" y="559.162109375"/>
			<point x="612.0322265625" y="728.8428344727"/>
			<point x="375.0002441406" y="728.8428344727" type="qcurve" smooth="yes"/>
			<point x="274.2706298828" y="728.8428344727" type="line"/>
			<point x="256.0721435547" y="833.8028564453" type="line"/>
			<point x="351.5805664062" y="835.8028564453" type="line" smooth="yes"/>
			<point x="517.6201171875" y="838.7229003906"/>
			<point x="722.0452880859" y="1019.4036254883"/>
			<point x="722.0452880859" y="1153.1243286133" type="qcurve" smooth="yes"/>
			<point x="722.0452880859" y="1275.9649658203"/>
			<point x="561.1588134766" y="1395.9655151367"/>
			<point x="427.6466064453" y="1395.9655151367" type="qcurve" smooth="yes"/>
			<point x="299.7412109375" y="1395.9655151367"/>
			<point x="136.6978759766" y="1291.832824707"/>
			<point x="101.7962646484" y="1240.6904296875" type="qcurve"/>
			<point x="44.5977783203" y="1340.4885864258" type="line"/>
			<point x="113.2035522461" y="1404.4848022461"/>
			<point x="324.1073608398" y="1510.9255371094"/>
			<point x="481.5590820312" y="1509.9255371094" type="qcurve" smooth="yes"/>
			<point x="662.3697509766" y="1508.9255371094"/>
			<point x="905.7083129883" y="1335.1248779297"/>
			<point x="905.7083129883" y="1178.727355957" type="qcurve" smooth="yes"/>
			<point x="905.7083129883" y="1018.1237792969"/>
			<point x="710.4476928711" y="839.5367431641"/>
			<point x="550.5134277344" y="796.6029663086" type="qcurve"/>
			<point x="551.5133666992" y="791.6829223633" type="line"/>
			<point x="718.5673828125" y="777.6367797852"/>
			<point x="934.8128051758" y="574.0095214844"/>
			<point x="934.8128051758" y="405.1326904297" type="qcurve" smooth="yes"/>
			<point x="934.8128051758" y="227.600769043"/>
			<point x="710.1341552734" y="-32"/>
			<point x="482.1477661133" y="-32" type="qcurve" smooth="yes"/>
			<point x="289.6997070312" y="-32"/>
			<point x="43.7619018555" y="85.5992431641"/>
		</contour>
	</outline>
</glyph>
<glyph name="four" format="2">
	<unicode hex="0034"/>
	<advance width="1089"/>
	<outline>
		<contour>
			<point x="-14.0014648438" y="528.9616699219" type="line"/>
			<point x="653.9191894531" y="1542.8050537109" type="line"/>
			<point x="790.9173583984" y="1504.8050537109" type="line"/>
			<point x="835.9167480469" y="1466.8050537109" type="line"/>
			<point x="833.9167480469" y="500.9616699219" type="line"/>
			<point x="835.9167480469" y="121.99609375" type="line"/>
			<point x="1036.7370605469" y="93.99609375" type="line"/>
			<point x="1036.7370605469" y="0" type="line"/>
			<point x="424.4030761719" y="0" type="line"/>
			<point x="424.4030761719" y="93.99609375" type="line"/>
			<point x="664.5866699219" y="121.99609375" type="line"/>
			<point x="667.5866699219" y="497.9616699219" type="line"/>
			<point x="663.5866699219" y="1387.5396118164" type="line"/>
			<point x="140.3640136719" y="563.9616699219" type="line"/>
			<point x="146.3640136719" y="556.9616699219" type="line"/>
			<point x="1067.2115478516" y="559.9616699219" type="line"/>
			<point x="1067.2115478516" y="451.9616699219" type="line"/>
			<point x="-0.0014648438" y="451.9616699219" type="line"/>
		</contour>
	</outline>
</glyph>
<glyph name="five" format="2">
	<unicode hex="0035"/>
	<advance width="1123"/>
	<outline>
		<contour>
			<point x="21.9985351562" y="137" type="qcurve"/>
			<point x="76.1705322266" y="250.0399780273" type="line"/>
			<point x="127.1326904297" y="196.455871582"/>
			<point x="327.4615478516" y="82"/>
			<point x="486.7979736328" y="82" type="qcurve" smooth="yes"/>
			<point x="675.3253173828" y="82"/>
			<point x="893.2231445312" y="306.840637207"/>
			<point x="893.2231445312" y="490.6013183594" type="qcurve" smooth="yes"/>
			<point x="893.2231445312" y="665.4019775391"/>
			<point x="642.9434814453" y="864.0827026367"/>
			<point x="450.1932373047" y="844.0827026367" type="qcurve" smooth="yes"/>
			<point x="186.1970214844" y="828.0827026367" type="line"/>
			<point x="123.1970214844" y="883.7229003906" type="line"/>
			<point x="165.1970214844" y="1465.6451416016" type="line"/>
			<point x="195.1970214844" y="1490.6451416016" type="line"/>
			<point x="995.1751708984" y="1490.6451416016" type="line"/>
			<point x="982.8420410156" y="1324.315246582" type="line"/>
			<point x="272.8638916016" y="1324.315246582" type="line"/>
			<point x="259.8638916016" y="1313.315246582" type="line"/>
			<point x="234.1970214844" y="917.1226806641" type="line"/>
			<point x="312.6068115234" y="928.8828125" type="line"/>
			<point x="712.1623535156" y="996.4820556641"/>
			<point x="1080.0847167969" y="746.6813964844"/>
			<point x="1080.0847167969" y="501.2415161133" type="qcurve" smooth="yes"/>
			<point x="1080.0847167969" y="255.5208129883"/>
			<point x="774.4091796875" y="-31"/>
			<point x="540.7590942383" y="-31" type="qcurve" smooth="yes"/>
			<point x="339.8952026367" y="-31"/>
			<point x="87.8967895508" y="79.8090820312"/>
		</contour>
	</outline>
</glyph>
<glyph name="six" format="2">
	<unicode hex="0036"/>
	<advance width="1207"/>
	<outline>
		<contour>
			<point x="55.9985351562" y="638.9622192383" type="qcurve" smooth="yes"/>
			<point x="55.9985351562" y="982.4826049805"/>
			<point x="465.1135864258" y="1487.1544799805"/>
			<point x="734.9295654297" y="1555.0054931641" type="qcurve"/>
			<point x="767.7310791016" y="1451.4100341797" type="line"/>
			<point x="559.3702392578" y="1401.0858764648"/>
			<point x="242.6616210938" y="952.723449707"/>
			<point x="242.6616210938" y="659.9622192383" type="qcurve" smooth="yes"/>
			<point x="242.6616210938" y="399.5674438477"/>
			<point x="446.2326660156" y="82"/>
			<point x="624.7672119141" y="82" type="qcurve" smooth="yes"/>
			<point x="799.3017578125" y="82"/>
			<point x="986.1204833984" y="308.4776000977"/>
			<point x="986.1204833984" y="495.9616699219" type="qcurve" smooth="yes"/>
			<point x="986.1204833984" y="651.0385131836"/>
			<point x="869.8934326172" y="848.6029663086"/>
			<point x="776.3588867188" y="848.6029663086" type="qcurve" smooth="yes"/>
			<point x="655.5420532227" y="848.6029663086"/>
			<point x="539.3775634766" y="787.2611083984"/>
			<point x="540.8802490234" y="777.7734985352" type="qcurve"/>
			<point x="497.7692260742" y="870.8506469727" type="line"/>
			<point x="498.3474731445" y="886.8861694336"/>
			<point x="642.1981811523" y="972.0032958984"/>
			<point x="796.8625488281" y="972.0032958984" type="qcurve" smooth="yes"/>
			<point x="977.7012939453" y="972.0032958984"/>
			<point x="1182.1166381836" y="734.5224609375"/>
			<point x="1182.1166381836" y="536.7879638672" type="qcurve" smooth="yes"/>
			<point x="1182.1166381836" y="249.2523193359"/>
			<point x="874.8653564453" y="-33"/>
			<point x="638.6126708984" y="-33" type="qcurve" smooth="yes"/>
			<point x="407.1264038086" y="-33"/>
			<point x="55.9985351562" y="305.1182250977"/>
		</contour>
	</outline>
</glyph>
<glyph name="seven" format="2">
	<unicode hex="0037"/>
	<advance width="1014"/>
	<outline>
		<contour>
			<point x="-3.4231567383" y="1096.9823608398" type="line"/>
			<point x="-3.7567138672" y="1490.6451416016" type="line"/>
			<point x="976.4020996094" y="1490.6451416016" type="line"/>
			<point x="976.4020996094" y="1390.3132324219" type="line"/>
			<point x="679.2348632812" y="735.8289794922" type="line"/>
			<point x="387.5120849609" y="-18" type="line"/>
			<point x="183.8493041992" y="-18" type="line"/>
			<point x="183.8493041992" y="40.6656494141" type="line"/>
			<point x="557.9036254883" y="796.6284790039" type="line"/>
			<point x="786.7381591797" y="1328.9817504883" type="line"/>
			<point x="786.7381591797" y="1329.9817504883" type="line"/>
			<point x="166.9129638672" y="1329.9817504883" type="line"/>
			<point x="118.5796508789" y="1096.9823608398" type="line"/>
		</contour>
	</outline>
</glyph>
<glyph name="eight" format="2">
	<unicode hex="0038"/>
	<advance width="1013"/>
	<outline>
		<contour>
			<point x="39.9985351562" y="364.9611206055" type="qcurve" smooth="yes"/>
			<point x="39.9985351562" y="528.2848510742"/>
			<point x="244.0689697266" y="746.0430297852"/>
			<point x="389.7725830078" y="800.864074707" type="qcurve"/>
			<point x="459.7006835938" y="754.4547729492" type="line"/>
			<point x="296.2554931641" y="686.571472168"/>
			<point x="158.9985351562" y="493.8303833008"/>
			<point x="158.9985351562" y="376.6351318359" type="qcurve" smooth="yes"/>
			<point x="158.9985351562" y="259.7606811523"/>
			<point x="314.0570068359" y="78"/>
			<point x="482.3366699219" y="77" type="qcurve" smooth="yes"/>
			<point x="655.2344970703" y="76"/>
			<point x="797.8302612305" y="239.9205932617"/>
			<point x="800.8302612305" y="380.6837768555" type="qcurve" smooth="yes"/>
			<point x="802.8302612305" y="527.169128418"/>
			<point x="565.8078613281" y="653.9820556641"/>
			<point x="432.7534179688" y="723.4709472656" type="qcurve" smooth="yes"/>
			<point x="212.4057617188" y="816.1197509766"/>
			<point x="72.1416015625" y="991.5465087891"/>
			<point x="72.1416015625" y="1140.7641601562" type="qcurve" smooth="yes"/>
			<point x="72.1416015625" y="1289.684753418"/>
			<point x="294.8623046875" y="1510.3253173828"/>
			<point x="477.1571044922" y="1510.3253173828" type="qcurve" smooth="yes"/>
			<point x="661.0549316406" y="1510.3253173828"/>
			<point x="868.3459472656" y="1308.5246582031"/>
			<point x="868.3459472656" y="1164.444152832" type="qcurve" smooth="yes"/>
			<point x="868.3459472656" y="1029.1327514648"/>
			<point x="722.6352539062" y="842.2346191406"/>
			<point x="558.3358764648" y="766.8702392578" type="qcurve"/>
			<point x="473.7858276367" y="820.1210327148" type="line"/>
			<point x="637.2609863281" y="888.9110107422"/>
			<point x="749.3459472656" y="1052.8481445312"/>
			<point x="750.3459472656" y="1157.444152832" type="qcurve" smooth="yes"/>
			<point x="751.3459472656" y="1262.4846801758"/>
			<point x="617.5157470703" y="1397.3652954102"/>
			<point x="489.751953125" y="1397.3652954102" type="qcurve" smooth="yes"/>
			<point x="355.0482177734" y="1397.3652954102"/>
			<point x="235.805480957" y="1267.1362304688"/>
			<point x="235.805480957" y="1160.6187744141" type="qcurve" smooth="yes"/>
			<point x="235.805480957" y="1059.4221191406"/>
			<point x="342.4978027344" y="942.7748413086"/>
			<point x="564.9017333984" y="853.5155029297" type="qcurve" smooth="yes"/>
			<point x="696.0679931641" y="785.1080322266"/>
			<point x="972.8271484375" y="591.9063720703"/>
			<point x="972.8271484375" y="394.5870361328" type="qcurve" smooth="yes"/>
			<point x="972.8271484375" y="207.0405273438"/>
			<point x="720.1667480469" y="-32"/>
			<point x="507.0103759766" y="-32" type="qcurve" smooth="yes"/>
			<point x="281.9296875" y="-32"/>
			<point x="39.9985351562" y="196.0405273438"/>
		</contour>
	</outline>
</glyph>
<glyph name="nine" format="2">
	<unicode hex="0039"/>
	<advance width="1207"/>
	<outline>
		<contour>
			<point x="25.9985351562" y="982.2437133789" type="qcurve" smooth="yes"/>
			<point x="25.9985351562" y="1239.7645263672"/>
			<point x="318.1040039062" y="1515.9655151367"/>
			<point x="547.1121826172" y="1515.9655151367" type="qcurve" smooth="yes"/>
			<point x="791.5825805664" y="1515.9655151367"/>
			<point x="1150.1166381836" y="1176.6450195312"/>
			<point x="1150.1166381836" y="844.0432739258" type="qcurve" smooth="yes"/>
			<point x="1150.1166381836" y="499.8422851562"/>
			<point x="732.6305541992" y="-1.943359375"/>
			<point x="462.3093261719" y="-72.6396484375" type="qcurve"/>
			<point x="428.1070556641" y="36.7973022461" type="line"/>
			<point x="633.6625976562" y="71.4919433594"/>
			<point x="959.787109375" y="530.2420654297"/>
			<point x="959.787109375" y="823.0032958984" type="qcurve" smooth="yes"/>
			<point x="959.787109375" y="1087.4245605469"/>
			<point x="744.9149169922" y="1397.9655151367"/>
			<point x="566.7801513672" y="1397.9655151367" type="qcurve" smooth="yes"/>
			<point x="391.7258911133" y="1397.9655151367"/>
			<point x="212.3282470703" y="1177.0408325195"/>
			<point x="212.3282470703" y="985.4407958984" type="qcurve" smooth="yes"/>
			<point x="212.3282470703" y="826.1585083008"/>
			<point x="319.7310791016" y="628.3625488281"/>
			<point x="413.265625" y="628.3625488281" type="qcurve" smooth="yes"/>
			<point x="507.5944824219" y="628.3625488281"/>
			<point x="646.3203125" y="702.2364501953"/>
			<point x="643.4144897461" y="711.483215332" type="qcurve"/>
			<point x="692.4544677734" y="631.751953125" type="line"/>
			<point x="684.1544189453" y="602.5723876953"/>
			<point x="544.2061157227" y="510.3625488281"/>
			<point x="387.8425292969" y="510.3625488281" type="qcurve" smooth="yes"/>
			<point x="245.3616333008" y="510.3625488281"/>
			<point x="25.9985351562" y="748.2031860352"/>
		</contour>
	</outline>
</glyph>
<glyph name="A" format="2">
	<unicode hex="0041"/>
	<advance width="1443"/>
	<outline>
		<contour>
			<point x="-125.9167480469" y="0" type="line"/>
			<point x="-123.9167480469" y="100.001953125" type="line"/>
			<point x="57.0856933594" y="135.001953125" type="line"/>
			<point x="262.0736694336" y="608.6026000977" type="line"/>
			<point x="610.6958618164" y="1508" type="line"/>
			<point x="761.1245117188" y="1508" type="line"/>
			<point x="1097.5372924805" y="663.8944702148" type="line"/>
			<point x="1318.6262207031" y="132.001953125" type="line"/>
			<point x="1513.6286621094" y="100.001953125" type="line"/>
			<point x="1511.6286621094" y="0" type="line"/>
			<point x="945.1181030273" y="0" type="line"/>
			<point x="948.1181030273" y="100.001953125" type="line"/>
			<point x="1122.1205444336" y="137.001953125" type="line"/>
			<point x="935.7876586914" y="607.1161499023" type="line"/>
			<point x="695.0001220703" y="1196.973449707" type="line"/>
			<point x="674.9003295898" y="1290.2910766602" type="line"/>
			<point x="662.9003295898" y="1290.2910766602" type="line"/>
			<point x="640.4659423828" y="1196.5863647461" type="line"/>
			<point x="394.0155639648" y="579.829284668" type="line"/>
			<point x="206.1195068359" y="140.001953125" type="line"/>
			<point x="401.1219482422" y="100.001953125" type="line"/>
			<point x="399.1219482422" y="0" type="line"/>
		</contour>
		<contour>
			<point x="666.8005981445" y="641.6452026367" type="line"/>
			<point x="1005.4999389648" y="647.7418823242" type="line"/>
			<point x="1045.9576416016" y="524.0651245117" type="line"/>
			<point x="664.8005981445" y="526.0651245117" type="line"/>
		</contour>
		<contour>
			<point x="274.8312988281" y="522.0651245117" type="line"/>
			<point x="312.5196533203" y="646.5483398438" type="line"/>
			<point x="669.6306152344" y="641.6452026367" type="line"/>
			<point x="667.6306152344" y="526.0651245117" type="line"/>
		</contour>
	</outline>
	<anchor name="bottom" x="735" y="0"/>
	<anchor name="ogonek" x="1318" y="0"/>
	<anchor name="tonos" x="492" y="1500"/>
	<anchor name="top" x="753" y="1500"/>
</glyph>
<glyph name="B" format="2">
	<unicode hex="0042"/>
	<advance width="1261"/>
	<outline>
		<contour>
			<point x="81.99609375" y="0" type="line"/>
			<point x="81.99609375" y="100.001953125" type="line"/>
			<point x="289.9985351562" y="134.001953125" type="line"/>
			<point x="292.9985351562" y="760" type="line"/>
			<point x="290.9985351562" y="1366.7177734375" type="line"/>
			<point x="81.99609375" y="1400.7177734375" type="line"/>
			<point x="81.99609375" y="1500" type="line"/>
			<point x="737.8448486328" y="1500" type="line" smooth="yes"/>
			<point x="917.9566040039" y="1500"/>
			<point x="1091.7422485352" y="1321"/>
			<point x="1091.7422485352" y="1171" type="qcurve" smooth="yes"/>
			<point x="1091.7422485352" y="1027"/>
			<point x="991.4680786133" y="849"/>
			<point x="897.1384277344" y="831" type="qcurve"/>
			<point x="897.1384277344" y="826" type="line"/>
			<point x="1023.6571655273" y="813"/>
			<point x="1186.0373535156" y="619"/>
			<point x="1186.0373535156" y="442" type="qcurve" smooth="yes"/>
			<point x="1186.0373535156" y="236"/>
			<point x="953.4357299805" y="0"/>
			<point x="763.5526733398" y="0" type="qcurve" smooth="yes"/>
		</contour>
		<contour>
			<point x="465.297668457" y="146.7413330078" type="line"/>
			<point x="488.297668457" y="129.9025878906" type="line"/>
			<point x="716.2171630859" y="129.9025878906" type="line" smooth="yes"/>
			<point x="818.1209716797" y="129.9025878906"/>
			<point x="998.9243774414" y="275.7069702148"/>
			<point x="998.9243774414" y="439" type="qcurve" smooth="yes"/>
			<point x="998.9243774414" y="585.317199707"/>
			<point x="829.4373168945" y="738.1295166016"/>
			<point x="718.7236938477" y="738.1295166016" type="qcurve" smooth="yes"/>
			<point x="460.3907470703" y="738.1295166016" type="line"/>
			<point x="460.3907470703" y="728.9036865234" type="line"/>
		</contour>
		<contour>
			<point x="462.0884399414" y="877.2579345703" type="line"/>
			<point x="463.0884399414" y="858.8385620117" type="line"/>
			<point x="711.551940918" y="858.8385620117" type="line" smooth="yes"/>
			<point x="779.2417602539" y="858.8385620117"/>
			<point x="906.7454223633" y="1013.6223754883"/>
			<point x="906.7454223633" y="1149" type="qcurve" smooth="yes"/>
			<point x="906.7454223633" y="1266.5588989258"/>
			<point x="776.6060180664" y="1367.1942749023"/>
			<point x="695.5115356445" y="1367.1942749023" type="qcurve" smooth="yes"/>
			<point x="488.5999755859" y="1367.1942749023" type="line"/>
			<point x="466.5999755859" y="1347.3555297852" type="line"/>
		</contour>
	</outline>
	<anchor name="bottom" x="614" y="0"/>
	<anchor name="top" x="614" y="1500"/>
</glyph>
<glyph name="F" format="2">
	<unicode hex="0046"/>
	<advance width="1060"/>
	<outline>
		<contour>
			<point x="81.99609375" y="0" type="line"/>
			<point x="81.99609375" y="100.001953125" type="line"/>
			<point x="290.9985351562" y="133.001953125" type="line"/>
			<point x="292.9985351562" y="763" type="line"/>
			<point x="290.9985351562" y="1366.7177734375" type="line"/>
			<point x="81.99609375" y="1399.7177734375" type="line"/>
			<point x="81.99609375" y="1500" type="line"/>
			<point x="1001.9844970703" y="1500" type="line"/>
			<point x="1001.9844970703" y="1104.2734375" type="line"/>
			<point x="891.9853515625" y="1104.2734375" type="line"/>
			<point x="834.9853515625" y="1371.516784668" type="line"/>
			<point x="504.297668457" y="1371.516784668" type="line"/>
			<point x="469.297668457" y="1345.516784668" type="line"/>
			<point x="465.6930541992" y="762" type="line"/>
			<point x="468.297668457" y="130.001953125" type="line"/>
			<point x="674.3001098633" y="100.001953125" type="line"/>
			<point x="674.3001098633" y="0" type="line"/>
		</contour>
		<contour>
			<point x="380.9969482422" y="693.7099609375" type="line"/>
			<point x="380.9969482422" y="815.096496582" type="line"/>
			<point x="718.9853515625" y="816.4512939453" type="line"/>
			<point x="757.9853515625" y="1014.5146484375" type="line"/>
			<point x="853.9844970703" y="1014.5146484375" type="line"/>
			<point x="853.9844970703" y="494.455078125" type="line"/>
			<point x="757.9853515625" y="494.455078125" type="line"/>
			<point x="718.9853515625" y="694.3551635742" type="line"/>
		</contour>
	</outline>
	<anchor name="bottom" x="578" y="0"/>
	<anchor name="top" x="622" y="1500"/>
</glyph>
<glyph name="G" format="2">
	<unicode hex="0047"/>
	<advance width="1557"/>
	<outline>
		<contour>
			<point x="84.9975585938" y="730" type="qcurve" smooth="yes"/>
			<point x="84.9975585938" y="1082"/>
			<point x="533.1563110352" y="1519"/>
			<point x="773.5917358398" y="1519" type="qcurve" smooth="yes"/>
			<point x="942.6831665039" y="1519"/>
			<point x="1079.15625" y="1450.9354248047"/>
			<point x="1122.859375" y="1386.8708496094" type="qcurve"/>
			<point x="1169.3138427734" y="1498" type="line"/>
			<point x="1279.4403076172" y="1498" type="line"/>
			<point x="1279.4403076172" y="1024.33984375" type="line"/>
			<point x="1159.7744140625" y="1024.33984375" type="line"/>
			<point x="1132.859375" y="1160" type="line" smooth="yes"/>
			<point x="1110.859375" y="1276"/>
			<point x="1063.4934692383" y="1383.6459350586"/>
			<point x="778.0536499023" y="1383.6459350586" type="qcurve" smooth="yes"/>
			<point x="623.05859375" y="1383.6459350586"/>
			<point x="272.6220703125" y="1050.453125"/>
			<point x="272.6220703125" y="737" type="qcurve" smooth="yes"/>
			<point x="271.6220703125" y="412.0604858398"/>
			<point x="653.8294067383" y="111.0638427734"/>
			<point x="817.1611938477" y="112.0638427734" type="qcurve" smooth="yes"/>
			<point x="1086.9758300781" y="112.0638427734"/>
			<point x="1266.2991943359" y="231.3542480469"/>
			<point x="1207.16796875" y="295.7736206055" type="qcurve"/>
			<point x="1207.16796875" y="582.998046875" type="line"/>
			<point x="919.1667480469" y="609.998046875" type="line"/>
			<point x="919.1667480469" y="712" type="line"/>
			<point x="1574.7487792969" y="712" type="line"/>
			<point x="1574.7487792969" y="609.998046875" type="line"/>
			<point x="1384.7463378906" y="582.998046875" type="line"/>
			<point x="1384.7463378906" y="209" type="line"/>
			<point x="1351.3753051758" y="133"/>
			<point x="1072.1911010742" y="-26"/>
			<point x="843.4533691406" y="-29" type="qcurve" smooth="yes"/>
			<point x="582.0832519531" y="-34"/>
			<point x="84.9975585938" y="351"/>
		</contour>
	</outline>
	<anchor name="bottom" x="872" y="0"/>
	<anchor name="top" x="836" y="1500"/>
</glyph>
<glyph name="H" format="2">
	<unicode hex="0048"/>
	<advance width="1741"/>
	<outline>
		<contour>
			<point x="81.99609375" y="0" type="line"/>
			<point x="81.99609375" y="100.001953125" type="line"/>
			<point x="289.9985351562" y="135.001953125" type="line"/>
			<point x="292.6031494141" y="754" type="line"/>
			<point x="289.9985351562" y="1366.7177734375" type="line"/>
			<point x="81.99609375" y="1400.7177734375" type="line"/>
			<point x="81.99609375" y="1500" type="line"/>
			<point x="685.3001098633" y="1500" type="line"/>
			<point x="685.3001098633" y="1400.7177734375" type="line"/>
			<point x="470.297668457" y="1366.7177734375" type="line"/>
			<point x="467.6930541992" y="754" type="line"/>
			<point x="470.297668457" y="135.001953125" type="line"/>
			<point x="685.3001098633" y="100.001953125" type="line"/>
			<point x="685.3001098633" y="0" type="line"/>
		</contour>
		<contour>
			<point x="397.9969482422" y="718.8068237305" type="line"/>
			<point x="397.9969482422" y="850.9996337891" type="line"/>
			<point x="888.194152832" y="841.4512939453" type="line"/>
			<point x="1334.298034668" y="850.9996337891" type="line"/>
			<point x="1334.298034668" y="718.8068237305" type="line"/>
			<point x="888.194152832" y="718.8068237305" type="line"/>
		</contour>
		<contour>
			<point x="1055.2971801758" y="0" type="line"/>
			<point x="1055.2971801758" y="100.001953125" type="line"/>
			<point x="1270.299621582" y="135.001953125" type="line"/>
			<point x="1272.9042358398" y="754" type="line"/>
			<point x="1270.299621582" y="1366.7177734375" type="line"/>
			<point x="1055.2971801758" y="1400.7177734375" type="line"/>
			<point x="1055.2971801758" y="1500" type="line"/>
			<point x="1658.6011962891" y="1500" type="line"/>
			<point x="1658.6011962891" y="1400.7177734375" type="line"/>
			<point x="1450.5987548828" y="1366.7177734375" type="line"/>
			<point x="1447.994140625" y="754" type="line"/>
			<point x="1450.5987548828" y="135.001953125" type="line"/>
			<point x="1658.6011962891" y="100.001953125" type="line"/>
			<point x="1658.6011962891" y="0" type="line"/>
		</contour>
	</outline>
	<anchor name="bottom" x="870" y="0"/>
	<anchor name="center" x="870" y="1079"/>
	<anchor name="top" x="870" y="1500"/>
	<anchor name="tonos" x="0" y="1500"/>
	<anchor name="cy_descender" x="1658" y="100"/>
</glyph>
<glyph name="I" format="2">
	<unicode hex="0049"/>
	<advance width="780"/>
	<outline>
		<contour>
			<point x="91.99609375" y="0" type="line"/>
			<point x="91.99609375" y="100.001953125" type="line"/>
			<point x="299.9985351562" y="135.001953125" type="line"/>
			<point x="302.6031494141" y="754" type="line"/>
			<point x="299.9985351562" y="1366.7177734375" type="line"/>
			<point x="91.99609375" y="1400.7177734375" type="line"/>
			<point x="91.99609375" y="1500" type="line"/>
			<point x="688.3001098633" y="1500" type="line"/>
			<point x="688.3001098633" y="1400.7177734375" type="line"/>
			<point x="480.297668457" y="1366.7177734375" type="line"/>
			<point x="477.6930541992" y="754" type="line"/>
			<point x="480.297668457" y="134.001953125" type="line"/>
			<point x="688.3001098633" y="100.001953125" type="line"/>
			<point x="688.3001098633" y="0" type="line"/>
		</contour>
	</outline>
	<anchor name="bottom" x="390" y="0"/>
	<anchor name="ogonek" x="526" y="0"/>
	<anchor name="top" x="390" y="1500"/>
	<anchor name="tonos" x="0" y="1500"/>
	<anchor name="yu_dash" x="380" y="755"/>
	<anchor name="_Yeru_I" x="82" y="0"/>
	<anchor name="liga" x="780" y="0"/>
</glyph>
<glyph name="N" format="2">
	<unicode hex="004E"/>
	<advance width="1663"/>
	<outline>
		<contour>
			<point x="82.99609375" y="0" type="line"/>
			<point x="82.99609375" y="100.001953125" type="line"/>
			<point x="292.9985351562" y="135.001953125" type="line"/>
			<point x="294.9985351562" y="753" type="line"/>
			<point x="292.9985351562" y="1366.7177734375" type="line"/>
			<point x="82.99609375" y="1400.7177734375" type="line"/>
			<point x="82.99609375" y="1500" type="line"/>
			<point x="524.6033935547" y="1500" type="line"/>
			<point x="937.0076293945" y="818.2782592773" type="line"/>
			<point x="1218.5542602539" y="360.038269043" type="line"/>
			<point x="1259.3333740234" y="277.0076293945" type="line"/>
			<point x="1265.3333740234" y="280.0076293945" type="line"/>
			<point x="1259.9824829102" y="400.0076293945" type="line"/>
			<point x="1257.4866333008" y="751" type="line"/>
			<point x="1254.4866333008" y="1366.7177734375" type="line"/>
			<point x="1038.4841918945" y="1400.7177734375" type="line"/>
			<point x="1038.4841918945" y="1500" type="line"/>
			<point x="1593.069152832" y="1500" type="line"/>
			<point x="1593.069152832" y="1400.7177734375" type="line"/>
			<point x="1393.0667114258" y="1366.7177734375" type="line"/>
			<point x="1389.0667114258" y="753" type="line"/>
			<point x="1392.0667114258" y="-4" type="line"/>
			<point x="1210.5963134766" y="-4" type="line"/>
			<point x="785.896484375" y="725.3186645508" type="line"/>
			<point x="464.0430297852" y="1245.5797729492" type="line"/>
			<point x="423.0475463867" y="1331.1776733398" type="line"/>
			<point x="418.0475463867" y="1327.573059082" type="line"/>
			<point x="426.9656982422" y="1189.573059082" type="line"/>
			<point x="428.9656982422" y="755" type="line"/>
			<point x="435.9656982422" y="135.001953125" type="line"/>
			<point x="637.9681396484" y="100.001953125" type="line"/>
			<point x="637.9681396484" y="0" type="line"/>
		</contour>
	</outline>
	<anchor name="bottom" x="800" y="0"/>
	<anchor name="top" x="800" y="1500"/>
	<anchor name="engtail" x="1324" y="0"/>
	<anchor name="liga" x="1600" y="0"/>
</glyph>
<glyph name="S" format="2">
	<unicode hex="0053"/>
	<advance width="1122"/>
	<outline>
		<contour>
			<point x="53.4991455078" y="0" type="line"/>
			<point x="53.4991455078" y="471.8178710938" type="line"/>
			<point x="154.3104248047" y="471.8178710938" type="line"/>
			<point x="217.3709716797" y="261" type="line" smooth="yes"/>
			<point x="239.3065795898" y="199.0638427734"/>
			<point x="361.1669311523" y="102.6444702148"/>
			<point x="559.6283569336" y="102.6444702148" type="qcurve" smooth="yes"/>
			<point x="687.8180541992" y="102.6444702148"/>
			<point x="867.9580078125" y="232.5567016602"/>
			<point x="868.9378051758" y="372.8799438477" type="qcurve" smooth="yes"/>
			<point x="869.9176025391" y="525.5552978516"/>
			<point x="708.4533691406" y="653.1340942383"/>
			<point x="490.8743896484" y="727.0004882812" type="qcurve" smooth="yes"/>
			<point x="264.6347045898" y="796.9646606445"/>
			<point x="84.3092041016" y="980.3345336914"/>
			<point x="84.3092041016" y="1143.5198974609" type="qcurve" smooth="yes"/>
			<point x="84.3092041016" y="1300.9383544922"/>
			<point x="285.634765625" y="1519"/>
			<point x="501.9520874023" y="1519" type="qcurve" smooth="yes"/>
			<point x="600.2615356445" y="1519"/>
			<point x="815.9483032227" y="1453.9473266602"/>
			<point x="838.0592041016" y="1408.193359375" type="qcurve"/>
			<point x="842.4418945312" y="1487" type="line"/>
			<point x="952.4067382812" y="1487" type="line"/>
			<point x="952.4067382812" y="1068.33984375" type="line"/>
			<point x="849.2984619141" y="1068.33984375" type="line"/>
			<point x="811.8258056641" y="1238" type="line" smooth="yes"/>
			<point x="794.3981323242" y="1312.1024780273"/>
			<point x="628.5838012695" y="1381.6136474609"/>
			<point x="511.491027832" y="1381.6136474609" type="qcurve" smooth="yes"/>
			<point x="353.467956543" y="1381.6136474609"/>
			<point x="267.8042602539" y="1285.3455200195"/>
			<point x="268.7840576172" y="1175.7926635742" type="qcurve" smooth="yes"/>
			<point x="269.7638549805" y="1059.1115722656"/>
			<point x="350.8751831055" y="945.3385009766"/>
			<point x="653.6072387695" y="859.3227539062" type="qcurve" smooth="yes"/>
			<point x="788.1086425781" y="798.1959228516"/>
			<point x="1046.8237304688" y="608.536315918"/>
			<point x="1046.8237304688" y="438.6893310547" type="qcurve" smooth="yes"/>
			<point x="1046.8237304688" y="255.9346313477"/>
			<point x="802.2354125977" y="-31"/>
			<point x="584.0940551758" y="-31" type="qcurve" smooth="yes"/>
			<point x="460.5520019531" y="-31"/>
			<point x="254.8225708008" y="41"/>
			<point x="202.0075683594" y="108" type="qcurve"/>
			<point x="153.7286376953" y="0" type="line"/>
		</contour>
	</outline>
	<anchor name="bottom" x="599" y="0"/>
	<anchor name="top" x="514" y="1500"/>
</glyph>
<glyph name="T" format="2">
	<unicode hex="0054"/>
	<advance width="1171"/>
	<outline>
		<contour>
			<point x="-27.0007324219" y="1047.5177612305" type="line"/>
			<point x="-27.0007324219" y="1500" type="line"/>
			<point x="1197.6353149414" y="1500" type="line"/>
			<point x="1197.6353149414" y="1047.5177612305" type="line"/>
			<point x="1087.6361694336" y="1047.5177612305" type="line"/>
			<point x="1050.6334838867" y="1378.516784668" type="line"/>
			<point x="700.4537963867" y="1378.516784668" type="line"/>
			<point x="674.4537963867" y="1366.516784668" type="line"/>
			<point x="670.8491821289" y="754" type="line"/>
			<point x="676.4537963867" y="135.001953125" type="line"/>
			<point x="898.456237793" y="100.001953125" type="line"/>
			<point x="898.456237793" y="0" type="line"/>
			<point x="270.1522216797" y="0" type="line"/>
			<point x="270.1522216797" y="100.001953125" type="line"/>
			<point x="497.1546630859" y="135.001953125" type="line"/>
			<point x="501.7592773438" y="754" type="line"/>
			<point x="498.1546630859" y="1364.516784668" type="line"/>
			<point x="467.1546630859" y="1378.516784668" type="line"/>
			<point x="112.0010986328" y="1378.516784668" type="line"/>
			<point x="83.9984130859" y="1047.5177612305" type="line"/>
		</contour>
	</outline>
	<anchor name="bottom" x="644" y="0"/>
	<anchor name="center" x="644" y="750"/>
	<anchor name="top" x="644" y="1500"/>
	<anchor name="cy_descender" x="951" y="100"/>
</glyph>
<glyph name="Z" format="2">
	<unicode hex="005A"/>
	<advance width="1198"/>
	<outline>
		<contour>
			<point x="26.0993041992" y="0" type="line"/>
			<point x="-8.3521728516" y="101.5479736328" type="line"/>
			<point x="969.8214111328" y="1360.516784668" type="line"/>
			<point x="968.8214111328" y="1375.516784668" type="line"/>
			<point x="287.8807373047" y="1375.516784668" type="line"/>
			<point x="214.1717529297" y="1058.135925293" type="line"/>
			<point x="109.1362304688" y="1058.135925293" type="line"/>
			<point x="109.1362304688" y="1500" type="line"/>
			<point x="1137.2714233398" y="1500" type="line"/>
			<point x="1137.2714233398" y="1374.0972290039" type="line"/>
			<point x="197.1495361328" y="137.5477905273" type="line"/>
			<point x="200.1495361328" y="123.5477905273" type="line"/>
			<point x="989.0577392578" y="123.5477905273" type="line"/>
			<point x="1097.2750854492" y="459.3651733398" type="line"/>
			<point x="1199.4319458008" y="459.3651733398" type="line"/>
			<point x="1149.444152832" y="0" type="line"/>
		</contour>
	</outline>
	<anchor name="bottom" x="583" y="0"/>
	<anchor name="top" x="583" y="1500"/>
	<anchor name="_liga" x="0" y="0"/>
</glyph>
<glyph name="k" format="2">
	<unicode hex="006B"/>
	<advance width="1048"/>
	<outline>
		<contour>
			<point x="62.8830566406" y="0" type="line"/>
			<point x="62.8830566406" y="81.0048828125" type="line"/>
			<point x="211.8818359375" y="108.0048828125" type="line"/>
			<point x="215.3262939453" y="552" type="line"/>
			<point x="211.8818359375" y="1410.9916992188" type="line"/>
			<point x="33.8826904297" y="1431.9916992188" type="line"/>
			<point x="33.8826904297" y="1519.9965820312" type="line"/>
			<point x="344.1051635742" y="1533.9965820312" type="line"/>
			<point x="352.1051635742" y="1528.9965820312" type="line"/>
			<point x="371.1051635742" y="1505.9965820312" type="line"/>
			<point x="372.6607055664" y="572" type="line"/>
			<point x="381.1051635742" y="108.0048828125" type="line"/>
			<point x="537.1039428711" y="81.0048828125" type="line"/>
			<point x="537.1039428711" y="0" type="line"/>
		</contour>
		<contour>
			<point x="306.1046142578" y="317.4538574219" type="line"/>
			<point x="304.1046142578" y="446.5112304688" type="line"/>
			<point x="736.8077392578" y="895.3920898438" type="line"/>
			<point x="606.8089599609" y="917.3920898438" type="line"/>
			<point x="606.8089599609" y="999.3969726562" type="line"/>
			<point x="1022.2377929688" y="999.3969726562" type="line"/>
			<point x="1022.2377929688" y="917.3920898438" type="line"/>
			<point x="851.2390136719" y="894.3920898438" type="line"/>
		</contour>
		<contour>
			<point x="530.8492431641" y="580.0227661133" type="line"/>
			<point x="628.7642211914" y="695.3524780273" type="line"/>
			<point x="1004.4827880859" y="110.0048828125" type="line"/>
			<point x="1189.4815673828" y="81.0048828125" type="line"/>
			<point x="1189.4815673828" y="0" type="line"/>
			<point x="755.9388427734" y="0" type="line"/>
			<point x="753.4166259766" y="87.1495361328" type="line"/>
			<point x="841.0272216797" y="110.02734375" type="line"/>
		</contour>
	</outline>
	<anchor name="bottom" x="608" y="0"/>
	<anchor name="top" x="578" y="1534"/>
</glyph>
<glyph name="m" format="2">
	<unicode hex="006D"/>
	<advance width="1739"/>
	<outline>
		<contour>
			<point x="76.8830566406" y="0" type="line"/>
			<point x="76.8830566406" y="81.0048828125" type="line"/>
			<point x="224.8818359375" y="108.0048828125" type="line"/>
			<point x="227.3262939453" y="552" type="line"/>
			<point x="224.8818359375" y="874.6932983398" type="line"/>
			<point x="52.8830566406" y="894.6932983398" type="line"/>
			<point x="52.8830566406" y="987.6981811523" type="line"/>
			<point x="336.1049194336" y="999.6981811523" type="line"/>
			<point x="366.5494384766" y="980.4758911133" type="line"/>
			<point x="386.1051635742" y="855.3419189453" type="line"/>
			<point x="398.8790893555" y="892.2956542969"/>
			<point x="623.8137207031" y="1020.6981811523"/>
			<point x="728.5033569336" y="1020.6981811523" type="qcurve" smooth="yes"/>
			<point x="814.9468383789" y="1020.6981811523"/>
			<point x="975.4033813477" y="936.1399536133"/>
			<point x="981.190246582" y="848.8973999023" type="qcurve"/>
			<point x="1028.9598999023" y="903.4979858398"/>
			<point x="1201.7523803711" y="1019.6981811523"/>
			<point x="1345.4153442383" y="1019.6981811523" type="qcurve" smooth="yes"/>
			<point x="1449.0944213867" y="1019.6981811523"/>
			<point x="1601.9108276367" y="897.8732910156"/>
			<point x="1601.9108276367" y="716.9199829102" type="qcurve" smooth="yes"/>
			<point x="1601.9108276367" y="688.8840332031"/>
			<point x="1598.1008911133" y="569.3734130859"/>
			<point x="1597.7996826172" y="552" type="qcurve" smooth="yes"/>
			<point x="1598.9108276367" y="108.0048828125" type="line"/>
			<point x="1746.9096069336" y="81.0048828125" type="line"/>
			<point x="1746.9096069336" y="0" type="line"/>
			<point x="1293.1331787109" y="0" type="line"/>
			<point x="1293.1331787109" y="81.0048828125" type="line"/>
			<point x="1434.1319580078" y="108.0048828125" type="line"/>
			<point x="1439.5764160156" y="552" type="line"/>
			<point x="1439.5764160156" y="707.6660766602" type="line" smooth="yes"/>
			<point x="1439.5764160156" y="804.677734375"/>
			<point x="1310.0026245117" y="896.2536010742"/>
			<point x="1261.2814941406" y="896.2536010742" type="qcurve" smooth="yes"/>
			<point x="1156.036315918" y="896.2536010742"/>
			<point x="1030.7617797852" y="791.4598388672"/>
			<point x="991.4124755859" y="717.0084838867" type="qcurve"/>
			<point x="991.5235595703" y="716.2737426758"/>
			<point x="992.3013305664" y="586.7208251953"/>
			<point x="992.3013305664" y="552" type="qcurve" smooth="yes"/>
			<point x="993.4124755859" y="108.0048828125" type="line"/>
			<point x="1160.4112548828" y="81.0048828125" type="line"/>
			<point x="1160.4112548828" y="0" type="line"/>
			<point x="667.6348266602" y="0" type="line"/>
			<point x="667.6348266602" y="81.0048828125" type="line"/>
			<point x="827.633605957" y="108.0048828125" type="line"/>
			<point x="832.0780639648" y="552" type="line"/>
			<point x="832.0780639648" y="709.6660766602" type="line" smooth="yes"/>
			<point x="832.0780639648" y="806.677734375"/>
			<point x="696.3442993164" y="896.2536010742"/>
			<point x="656.9876098633" y="896.2536010742" type="qcurve" smooth="yes"/>
			<point x="572.6356811523" y="896.2536010742"/>
			<point x="406.3234863281" y="778.4598388672"/>
			<point x="385.4384765625" y="712.0084838867" type="qcurve"/>
			<point x="385.2162475586" y="552" type="line"/>
			<point x="393.6607055664" y="108.0048828125" type="line"/>
			<point x="544.6594848633" y="81.0048828125" type="line"/>
			<point x="544.6594848633" y="0" type="line"/>
		</contour>
	</outline>
	<anchor name="bottom" x="958" y="0"/>
	<anchor name="top" x="958" y="1000"/>
</glyph>
<glyph name="o" format="2">
	<unicode hex="006F"/>
	<advance width="1138"/>
	<outline>
		<contour>
			<point x="63.7697753906" y="496.8095092773" type="qcurve" smooth="yes"/>
			<point x="63.7697753906" y="710.8226318359"/>
			<point x="355.6866455078" y="1019.6608276367"/>
			<point x="565.219543457" y="1019.6608276367" type="qcurve" smooth="yes"/>
			<point x="786.0618896484" y="1019.6608276367"/>
			<point x="1074.0026855469" y="737.2525634766"/>
			<point x="1074.0026855469" y="505.6984863281" type="qcurve" smooth="yes"/>
			<point x="1074.0026855469" y="268.2407836914"/>
			<point x="779.3951416016" y="-21.2398681641"/>
			<point x="561.219543457" y="-21.2398681641" type="qcurve" smooth="yes"/>
			<point x="338.2269897461" y="-21.2398681641"/>
			<point x="63.7697753906" y="262.0331420898"/>
		</contour>
		<contour>
			<point x="231.2153930664" y="507.6984863281" type="qcurve" smooth="yes"/>
			<point x="231.2153930664" y="341.7392578125"/>
			<point x="392.1218261719" y="81.7601318359"/>
			<point x="561.2435302734" y="81.7601318359" type="qcurve" smooth="yes"/>
			<point x="743.365234375" y="81.7601318359"/>
			<point x="906.2236938477" y="326.3959350586"/>
			<point x="906.2236938477" y="504.6984863281" type="qcurve" smooth="yes"/>
			<point x="906.2236938477" y="663.3539428711"/>
			<point x="733.365234375" y="904.6608276367"/>
			<point x="561.2435302734" y="904.6608276367" type="qcurve" smooth="yes"/>
			<point x="397.1218261719" y="904.6608276367"/>
			<point x="231.2153930664" y="687.8051147461"/>
		</contour>
	</outline>
	<anchor name="bottom" x="584" y="0"/>
	<anchor name="center" x="584" y="500"/>
	<anchor name="ogonek" x="747" y="0"/>
	<anchor name="top" x="584" y="1000"/>
	<anchor name="topright" x="751" y="1000"/>
	<anchor name="GRKtop" x="584" y="1000"/>
	<anchor name="yu_dash" x="150" y="500"/>
</glyph>
<glyph name="w" format="2">
	<unicode hex="0077"/>
	<advance width="1438"/>
	<outline>
		<contour>
			<point x="395.4646606445" y="-7" type="line"/>
			<point x="235.8086547852" y="493.9379272461" type="line"/>
			<point x="105.7926635742" y="893.3920898438" type="line"/>
			<point x="-54.2061157227" y="914.3920898438" type="line"/>
			<point x="-54.2061157227" y="999.3969726562" type="line"/>
			<point x="404.7587280273" y="999.3969726562" type="line"/>
			<point x="404.7587280273" y="917.3920898438" type="line"/>
			<point x="258.7599487305" y="893.3920898438" type="line"/>
			<point x="359.1746826172" y="537.2868041992" type="line"/>
			<point x="450.0675048828" y="269.3004150391" type="line"/>
			<point x="472.3978881836" y="171.7693481445" type="line"/>
			<point x="478.3978881836" y="171.7693481445" type="line"/>
			<point x="506.0155639648" y="267.9450073242" type="line"/>
			<point x="560.1940307617" y="410.6034545898" type="line"/>
			<point x="678.9139404297" y="745.4354248047" type="line"/>
			<point x="631.9487915039" y="893.3920898438" type="line"/>
			<point x="475.950012207" y="917.3920898438" type="line"/>
			<point x="475.950012207" y="999.3969726562" type="line"/>
			<point x="928.3592529297" y="999.3969726562" type="line"/>
			<point x="928.3592529297" y="917.3920898438" type="line"/>
			<point x="788.3604736328" y="894.3920898438" type="line"/>
			<point x="912.5790405273" y="466.2149658203" type="line"/>
			<point x="977.9903564453" y="264.3323974609" type="line"/>
			<point x="998.7873535156" y="160.2457275391" type="line"/>
			<point x="1004.7873535156" y="160.2457275391" type="line"/>
			<point x="1028.6054077148" y="263.0212402344" type="line"/>
			<point x="1130.1742553711" y="531.2098388672" type="line"/>
			<point x="1241.1591186523" y="897.3920898438" type="line"/>
			<point x="1069.1603393555" y="917.3920898438" type="line"/>
			<point x="1069.1603393555" y="999.3969726562" type="line"/>
			<point x="1497.811340332" y="999.3969726562" type="line"/>
			<point x="1497.811340332" y="914.3920898438" type="line"/>
			<point x="1352.8125610352" y="893.3920898438" type="line"/>
			<point x="1217.3720703125" y="497.2573852539" type="line"/>
			<point x="1056.0757446289" y="-7" type="line"/>
			<point x="916.8649902344" y="-7" type="line"/>
			<point x="826.0347290039" y="338.9751586914" type="line"/>
			<point x="728.5170288086" y="587.3619384766" type="line"/>
			<point x="722.5170288086" y="587.3619384766" type="line"/>
			<point x="611.1747436523" y="308.4306640625" type="line"/>
			<point x="534.8420410156" y="-7" type="line"/>
		</contour>
	</outline>
	<anchor name="bottom" x="787" y="0"/>
	<anchor name="top" x="787" y="1000"/>
</glyph>
<glyph name="x" format="2">
	<unicode hex="0078"/>
	<advance width="1063"/>
	<outline>
		<contour>
			<point x="6.2056274414" y="0" type="line"/>
			<point x="6.2056274414" y="81.0048828125" type="line"/>
			<point x="209.2044067383" y="108.0048828125" type="line"/>
			<point x="449.9867553711" y="473.9961547852" type="line"/>
			<point x="177.5474243164" y="893.3920898438" type="line"/>
			<point x="-15.4513549805" y="914.3920898438" type="line"/>
			<point x="-15.4513549805" y="999.3969726562" type="line"/>
			<point x="509.434753418" y="999.3969726562" type="line"/>
			<point x="509.434753418" y="917.3920898438" type="line"/>
			<point x="343.4359741211" y="896.3920898438" type="line"/>
			<point x="500.0054931641" y="691.7127075195" type="line"/>
			<point x="551.1128540039" y="596.024597168" type="line"/>
			<point x="557.1128540039" y="596.024597168" type="line"/>
			<point x="598.7164916992" y="693.5129394531" type="line"/>
			<point x="719.6038818359" y="896.3920898438" type="line"/>
			<point x="560.6051025391" y="917.3920898438" type="line"/>
			<point x="560.6051025391" y="999.3969726562" type="line"/>
			<point x="1013.3681640625" y="999.3969726562" type="line"/>
			<point x="1011.3681640625" y="914.3920898438" type="line"/>
			<point x="812.3693847656" y="893.3920898438" type="line"/>
			<point x="605.8731689453" y="537.5100708008" type="line"/>
			<point x="890.0475463867" y="108.0048828125" type="line"/>
			<point x="1092.0463256836" y="81.0048828125" type="line"/>
			<point x="1092.0463256836" y="0" type="line"/>
			<point x="533.5267944336" y="0" type="line"/>
			<point x="533.5267944336" y="81.0048828125" type="line"/>
			<point x="720.5255737305" y="107.0048828125" type="line"/>
			<point x="559.2333984375" y="324.8145751953" type="line"/>
			<point x="507.1594238281" y="420.4361572266" type="line"/>
			<point x="501.1594238281" y="420.4361572266" type="line"/>
			<point x="456.9471435547" y="324.0144042969" type="line"/>
			<point x="313.2367553711" y="108.0048828125" type="line"/>
			<point x="472.235534668" y="81.0048828125" type="line"/>
			<point x="472.235534668" y="0" type="line"/>
		</contour>
	</outline>
	<anchor name="bottom" x="522" y="0"/>
	<anchor name="top" x="522" y="1000"/>
	<anchor name="cy_descender" x="1043" y="80"/>
</glyph>
<glyph name="idotless" format="2">
	<unicode hex="0131"/>
	<advance width="547"/>
	<outline>
		<contour>
			<point x="61.1115722656" y="0" type="line"/>
			<point x="61.1115722656" y="83.0048828125" type="line"/>
			<point x="223.1103515625" y="108.0048828125" type="line"/>
			<point x="225.5548095703" y="548.9879150391" type="line"/>
			<point x="220.5993041992" y="872.9475097656" type="line"/>
			<point x="51.1115722656" y="891.9475097656" type="line"/>
			<point x="51.1115722656" y="979.9523925781" type="line"/>
			<point x="314.8889160156" y="1002.3969726562" type="line"/>
			<point x="338.4447021484" y="1000.3969726562" type="line"/>
			<point x="393.4448242188" y="949.0634155273" type="line"/>
			<point x="383.8892211914" y="548.9879150391" type="line"/>
			<point x="391.3336791992" y="108.0048828125" type="line"/>
			<point x="539.3324584961" y="83.0048828125" type="line"/>
			<point x="539.3324584961" y="0" type="line"/>
		</contour>
	</outline>
	<anchor name="bottom" x="320" y="0"/>
	<anchor name="top" x="320" y="1000"/>
	<anchor name="ogonek" x="513" y="0"/>
	<anchor name="liga" x="639" y="0"/>
</glyph>
